HIERARCHY
ROOT Hips
{
	OFFSET 0.000000 0.000000 0.000000
	CHANNELS 6 Xposition Yposition Zposition Zrotation Yrotation Xrotation 
	JOINT LowerBack
	{
		OFFSET 0.000000 0.000000 0.000000
		CHANNELS 3 Zrotation Yrotation Xrotation
		JOINT Spine
		{
			OFFSET 0.028270 2.035590 -0.193380
			CHANNELS 3 Zrotation Yrotation Xrotation
			JOINT Spine1
			{
				OFFSET 0.056720 2.048850 -0.042750
				CHANNELS 3 Zrotation Yrotation Xrotation
				JOINT Neck
				{
					OFFSET 0.000000 0.000000 0.000000
					CHANNELS 3 Zrotation Yrotation Xrotation
					JOINT Neck1
					{
						OFFSET -0.054170 1.746240 0.172020
						CHANNELS 3 Zrotation Yrotation Xrotation
						JOINT Head
						{
							OFFSET 0.104070 1.761360 -0.123970
							CHANNELS 3 Zrotation Yrotation Xrotation
							End Site
							{
								OFFSET 0.000000 0.000000 0.000000
							}
						}
					}
				}
				JOINT LeftShoulder
				{
					OFFSET 0.000000 0.000000 0.000000
					CHANNELS 3 Zrotation Yrotation Xrotation
					JOINT LeftArm
					{
						OFFSET 3.362410 1.200890 -0.311210
						CHANNELS 3 Zrotation Yrotation Xrotation
						JOINT LeftForeArm
						{
							OFFSET 4.983000 -0.000000 -0.000000
							CHANNELS 3 Zrotation Yrotation Xrotation
							JOINT LeftHand
							{
								OFFSET 3.483560 -0.000000 -0.000000
								CHANNELS 3 Zrotation Yrotation Xrotation
								JOINT LeftFingerBase
								{
									OFFSET 0.000000 0.000000 0.000000
									CHANNELS 3 Zrotation Yrotation Xrotation
									JOINT LeftHandIndex1
									{
										OFFSET 0.715260 -0.000000 -0.000000
										CHANNELS 3 Zrotation Yrotation Xrotation
										End Site
										{
											OFFSET 0.000000 0.000000 0.000000
										}
									}
								}
								JOINT LThumb
								{
									OFFSET 0.000000 0.000000 0.000000
									CHANNELS 3 Zrotation Yrotation Xrotation
									End Site
									{
										OFFSET 0.000000 0.000000 0.000000
									}
								}
							}
						}
					}
				}
				JOINT RightShoulder
				{
					OFFSET 0.000000 0.000000 0.000000
					CHANNELS 3 Zrotation Yrotation Xrotation
					JOINT RightArm
					{
						OFFSET -3.136600 1.374050 -0.404650
						CHANNELS 3 Zrotation Yrotation Xrotation
						JOINT RightForeArm
						{
							OFFSET -5.241900 -0.000000 -0.000000
							CHANNELS 3 Zrotation Yrotation Xrotation
							JOINT RightHand
							{
								OFFSET -3.444170 -0.000000 -0.000000
								CHANNELS 3 Zrotation Yrotation Xrotation
								JOINT RightFingerBase
								{
									OFFSET 0.000000 0.000000 0.000000
									CHANNELS 3 Zrotation Yrotation Xrotation
									JOINT RightHandIndex1
									{
										OFFSET -0.622530 -0.000000 -0.000000
										CHANNELS 3 Zrotation Yrotation Xrotation
										End Site
										{
											OFFSET 0.000000 0.000000 0.000000
										}
									}
								}
								JOINT RThumb
								{
									OFFSET 0.000000 0.000000 0.000000
									CHANNELS 3 Zrotation Yrotation Xrotation
									End Site
									{
										OFFSET 0.000000 0.000000 0.000000
									}
								}
							}
						}
					}
				}
			}
		}
	}
}
}
MOTION
Frames: 6
Frame Time: 0.008333
0.138563 17.223922 0.127251 5.934192 72.278185 39.352782 -3.109715 2.245965 6.721552 -0.998454 2.647140 -1.680995 -3.526006 2.679846 -0.274938 3.615419 -5.666816 -4.408261 -0.356602 -0.057810 0.533271 0.000000 0.000000 0.000000 4.651951 21.808970 0.859214 -67.450283 35.281083 26.775969 -179.656630 -79.572549 -179.994627 -1.552787 2.285323 -0.030600 0.058909 0.111692 0.000000 0.000000 0.000000 0.000000 0.000000 0.000000 0.000000 -7.875554 0.986093 -3.403926 73.547925 12.653972 15.058417 179.941833 78.474345 179.924674 -10.175122 9.184682 -0.889339 0.182525 -0.617231 -0.000000 0.000000 0.000000 0.000000 0.000000 0.000000 0.000000 
0.338602 17.178281 0.163269 5.304836 71.764407 38.739713 -3.417931 2.221534 6.664688 -1.051701 2.635400 -1.687647 -3.502456 2.668644 -0.231427 3.569518 -5.663715 -4.592737 -0.353210 -0.054440 0.483226 0.000000 0.000000 0.000000 4.573784 22.024303 0.941736 -67.963265 34.423985 26.135227 -179.639264 -79.309115 -179.994117 -1.680287 2.126328 -0.030487 0.061612 0.121896 0.000000 0.000000 0.000000 0.000000 0.000000 0.000000 0.000000 -7.991416 1.060484 -3.383147 73.915974 12.364797 15.512845 179.939363 78.501749 179.927758 -9.732014 9.090540 -0.841666 0.172273 -0.614562 -0.000000 0.000000 0.000000 0.000000 0.000000 0.000000 0.000000 
0.536269 17.121289 0.198609 4.768489 71.249669 38.208499 -3.731877 2.186647 6.628692 -1.105713 2.613460 -1.691777 -3.479627 2.647343 -0.198274 3.541126 -5.633777 -4.784160 -0.356117 -0.051334 0.430445 0.000000 0.000000 0.000000 4.476772 22.208131 1.031296 -68.499513 33.490277 25.431008 -179.620750 -79.037082 -179.993673 -1.759329 1.987428 -0.029463 0.063070 0.132494 0.000000 0.000000 0.000000 0.000000 0.000000 0.000000 0.000000 -8.073354 1.166706 -3.354277 74.260408 12.034692 15.919883 179.937511 78.499613 179.930572 -9.313258 9.003770 -0.797593 0.162235 -0.612354 -0.000000 0.000000 0.000000 0.000000 0.000000 0.000000 0.000000 
0.731470 17.053190 0.233125 4.316115 70.733608 37.750328 -4.049250 2.142211 6.615169 -1.160245 2.582182 -1.693800 -3.459144 2.616924 -0.178313 3.525361 -5.573168 -4.980555 -0.366534 -0.048614 0.375410 0.000000 0.000000 0.000000 4.344762 22.362418 1.125219 -69.033025 32.477694 24.678896 -179.600236 -78.742475 -179.993324 -1.786777 1.861185 -0.027626 0.063120 0.143654 0.000000 0.000000 0.000000 0.000000 0.000000 0.000000 0.000000 -8.123811 1.309079 -3.318100 74.587388 11.654327 16.264196 179.936640 78.463575 179.933079 -8.921003 8.935564 -0.758021 0.152352 -0.610911 -0.000000 0.000000 0.000000 0.000000 0.000000 0.000000 0.000000 
0.924174 16.974353 0.266312 3.892924 70.213541 37.312190 -4.354140 2.092111 6.627279 -1.212141 2.545018 -1.693936 -3.442147 2.580928 -0.174938 3.512893 -5.478203 -5.179899 -0.385266 -0.046379 0.318652 0.000000 0.000000 0.000000 4.153276 22.488591 1.220458 -69.536756 31.384737 23.894472 -179.576671 -78.413110 -179.993094 -1.762478 1.742431 -0.025174 0.061615 0.155504 0.000000 0.000000 0.000000 0.000000 0.000000 0.000000 0.000000 -8.151097 1.492827 -3.274939 74.903607 11.214486 16.531404 179.937175 78.397248 179.935262 -8.555832 8.892985 -0.723250 0.142539 -0.610368 -0.000000 0.000000 0.000000 0.000000 0.000000 0.000000 0.000000 
1.113919 16.885551 0.298703 3.537931 69.682620 36.927696 -4.664157 2.036368 6.670625 -1.265686 2.502527 -1.691899 -3.431608 2.540153 -0.191347 3.504314 -5.347892 -5.379598 -0.414275 -0.044810 0.260658 0.000000 0.000000 0.000000 3.896960 22.580836 1.316025 -69.986805 30.201296 23.091974 -179.549244 -78.046858 -179.993000 -1.688640 1.636320 -0.022207 0.058447 0.167898 0.000000 0.000000 0.000000 0.000000 0.000000 0.000000 0.000000 -8.146077 1.719428 -3.223518 75.218868 10.709455 16.705247 179.939443 78.303699 179.937094 -8.218801 8.878010 -0.693276 0.132738 -0.610846 -0.000000 0.000000 0.000000 0.000000 0.000000 0.000000 0.000000 
